# xmcd
#
# Track frame offsets: 
#        150
#        18014
#        37627
#        57364
#        76908
#        94055
#        109977
#        124290
#        142127
#        156996
#
# Disc length: 2322 seconds
#
# Revision: 2
# Processed by: cddbd v1.5.2PL0 Copyright (c) Steve Scherf et al.
# Submitted via: ExactAudioCopy v1.0b3
#
DISCID=7c09100a
DTITLE=Brutha - Brutha
DYEAR=2008
DGENRE=Soul
TTITLE0=Bang Bang
TTITLE1=I Can´T Hear The Music (feat. The Fabolous)
TTITLE2=She´S Gone
TTITLE3=Set It Off
TTITLE4=Like This
TTITLE5=Afraid Of Love
TTITLE6=Ghost
TTITLE7=What If
TTITLE8=Just Being Honest
TTITLE9=Make You Love It
EXTD=
EXTT0=
EXTT1=
EXTT2=
EXTT3=
EXTT4=
EXTT5=
EXTT6=
EXTT7=
EXTT8=
EXTT9=
PLAYORDER=
